<svg width="96" height="96" viewBox="0 0 96 96" fill="none" xmlns="http://www.w3.org/2000/svg">
<path d="M56.42 71.499L56.3338 82.0832L50.7581 76.5069V65.8156L56.42 71.499Z" stroke="#333333" stroke-miterlimit="10" stroke-linecap="round" stroke-linejoin="round"/>
<path d="M87.9997 19.6764C87.2324 20.4437 56.4209 71.4988 56.4209 71.4988L50.7664 65.7508L82.2992 13.9765L84.5394 16.2161L87.9447 19.622L87.9997 19.6764Z" stroke="#333333" stroke-miterlimit="10" stroke-linecap="round" stroke-linejoin="round"/>
<path d="M87.9994 19.6768C87.9994 19.6847 87.9705 30.2083 87.9705 30.2083C87.9705 30.2083 56.5198 81.8981 56.335 82.0829C56.3345 82.0835 56.3345 82.0835 56.3345 82.0835L56.4206 71.4992C56.42 71.4992 87.2321 20.4441 87.9994 19.6768Z" fill="#333333" stroke="#333333" stroke-miterlimit="10" stroke-linecap="round" stroke-linejoin="round"/>
<path d="M36.7322 71.4209L36.6364 81.9672L8.00049 53.3313V42.6399L12.3805 47.0262L12.3896 47.0352L14.7981 49.4873L36.7322 71.4209Z" stroke="#333333" stroke-miterlimit="10" stroke-linecap="round" stroke-linejoin="round"/>
<path d="M24.6232 47.8891L42.3638 65.6296L40.1123 67.8811V67.8817L36.652 71.3414L14.7989 49.4883L12.3904 47.0362L12.3814 47.0271L8.00928 42.5763L11.3675 39.2174L13.6598 36.9257L19.5377 31.0479L36.6922 13.9166L38.9318 16.1562H38.9324L40.1117 17.3355L42.3377 19.5615L42.3921 19.6159C41.6248 20.3832 40.8643 21.1437 40.1604 21.8475L40.1117 21.8963L40.0369 21.9711C38.1515 23.8565 36.7058 25.3016 36.7058 25.3016L20.539 41.4695L19.3608 42.6273L24.6232 47.8891Z" stroke="#333333" stroke-miterlimit="10" stroke-linecap="round" stroke-linejoin="round"/>
<path d="M42.3625 65.629V76.241L36.636 81.9675L36.7318 71.4212L36.6507 71.3407L40.111 67.8805L42.3625 65.629Z" fill="#333333" stroke="#333333" stroke-miterlimit="10" stroke-linecap="round" stroke-linejoin="round"/>
<path d="M42.3914 19.6165C42.3914 19.6244 42.3625 30.1481 42.3625 30.1481L36.636 35.8751C36.636 35.8751 29.0223 43.4887 25.9168 46.5943C25.1217 47.3893 24.6219 47.8892 24.6219 47.8892L22.2752 45.5425L19.3601 42.6274L20.5383 41.4696L36.7057 25.3028C36.7057 25.3028 38.1507 23.8577 40.0367 21.9723C40.0775 21.9309 40.1189 21.8901 40.1603 21.8487C40.8635 21.1443 41.6246 20.3838 42.3914 19.6165Z" fill="#333333" stroke="#333333" stroke-miterlimit="10" stroke-linecap="round" stroke-linejoin="round"/>
</svg>
