<svg width="32" height="32" viewBox="0 0 32 32" fill="none" xmlns="http://www.w3.org/2000/svg">
<path fill-rule="evenodd" clip-rule="evenodd" d="M16.7501 4.75C16.7501 4.33579 16.4143 4 16.0001 4C15.5859 4 15.2501 4.33579 15.2501 4.75V6.25C15.2501 6.66421 15.5859 7 16.0001 7C16.4143 7 16.7501 6.66421 16.7501 6.25V4.75ZM21.7805 7.84133L22.8415 6.78033C23.1343 6.48744 23.1343 6.01256 22.8415 5.71967C22.5486 5.42678 22.0737 5.42678 21.7808 5.71967L20.7198 6.78067C20.4269 7.07356 20.4269 7.54844 20.7198 7.84133C21.0127 8.13422 21.4876 8.13422 21.7805 7.84133ZM5.61415 9.42612C5.77264 9.04342 6.21136 8.86167 6.59405 9.02016L7.98005 9.59416C8.36274 9.75265 8.5445 10.1914 8.38601 10.5741C8.22752 10.9567 7.7888 11.1385 7.40611 10.98L6.02011 10.406C5.63742 10.2475 5.45566 9.80881 5.61415 9.42612ZM25.9801 10.406C26.3627 10.2475 26.5445 9.80881 26.386 9.42612C26.2275 9.04342 25.7888 8.86167 25.4061 9.02016L24.0201 9.59416C23.6374 9.75265 23.4557 10.1914 23.6142 10.5741C23.7726 10.9567 24.2114 11.1385 24.5941 10.98L25.9801 10.406ZM8.50012 12.25C7.67169 12.25 7.00012 12.9216 7.00012 13.75V16.75C7.00012 17.5784 7.6717 18.25 8.50012 18.25L8.50012 25.75C8.50012 26.9926 9.50748 28 10.7501 28H16.0001H21.2501C22.4928 28 23.5001 26.9926 23.5001 25.75V18.25C24.3285 18.25 25.0001 17.5784 25.0001 16.75V13.75C25.0001 12.9216 24.3285 12.25 23.5001 12.25H16.0001H8.50012ZM21.2501 26.5H16.7501V18.25H22.0001V25.75C22.0001 26.1642 21.6643 26.5 21.2501 26.5ZM15.2501 26.5V18.25H10.0001V25.75C10.0001 26.1642 10.3359 26.5 10.7501 26.5H15.2501ZM22.7501 16.75H16.7501V13.75H23.5001V16.75H22.7501ZM15.2501 16.75V13.75H8.50012V16.75H9.25012H15.2501ZM9.15876 5.71967C9.45165 5.42678 9.92652 5.42678 10.2194 5.71967L11.2804 6.78067C11.5733 7.07356 11.5733 7.54844 11.2804 7.84133C10.9875 8.13422 10.5127 8.13422 10.2198 7.84133L9.15876 6.78033C8.86586 6.48744 8.86586 6.01256 9.15876 5.71967Z" fill="#0B1D43"/>
</svg>
