<svg width="32" height="32" viewBox="0 0 32 32" fill="none" xmlns="http://www.w3.org/2000/svg">
<path fill-rule="evenodd" clip-rule="evenodd" d="M14.9478 4.25719C15.6078 3.91635 16.3921 3.91635 17.0521 4.25719L27.2614 9.53535C27.3004 9.55549 27.3371 9.57878 27.3713 9.6048C27.7604 9.85434 27.9997 10.2866 27.9997 10.7546C27.9997 11.265 27.7151 11.7328 27.2619 11.9676L24.5337 13.3772L27.2616 14.7883C27.7148 15.0231 27.9997 15.491 27.9997 16.0015C27.9997 16.5119 27.7151 16.9797 27.2619 17.2145L24.5313 18.6269L27.2619 20.0415C27.7151 20.2762 27.9997 20.7441 27.9997 21.2545C27.9997 21.7649 27.7151 22.2327 27.2619 22.4675L17.0522 27.7428C16.3922 28.0836 15.6078 28.0837 14.9478 27.7429L4.73837 22.4616C4.28512 22.2269 4.00024 21.7589 4.00024 21.2485C4.00024 20.738 4.28482 20.2702 4.73806 20.0355L7.46674 18.626L4.73837 17.2146C4.28512 16.9799 4.00024 16.5119 4.00024 16.0015C4.00024 15.491 4.28482 15.0232 4.73806 14.7885L7.47046 13.375L4.73837 11.9617C4.28512 11.727 4.00024 11.259 4.00024 10.7486C4.00024 10.2382 4.28482 9.77031 4.73806 9.53559L14.9478 4.25719ZM9.44096 17.9584C9.44376 17.9598 9.44655 17.9613 9.44933 17.9627L15.6361 21.1631C15.8642 21.2808 16.1355 21.2809 16.3636 21.1632L22.5505 17.9628C22.5534 17.9613 22.5562 17.9598 22.559 17.9584L26.342 16.0015L22.9004 14.2211L17.0522 17.2429C16.3922 17.5837 15.6078 17.5838 14.9478 17.243L9.10281 14.2194L5.65789 16.0015L9.44096 17.9584ZM22.8997 19.471L17.0526 22.4956C16.3925 22.8365 15.6078 22.8367 14.9478 22.4959L9.09977 19.4707L5.65806 21.2486L15.6361 26.4101C15.8643 26.5278 16.1355 26.5279 16.3637 26.4102L26.3421 21.2543L22.8997 19.471ZM22.527 12.7257C22.5455 12.7151 22.5645 12.7053 22.5838 12.6963L26.3476 10.7515L16.3638 5.58996C16.1356 5.47209 15.8644 5.47209 15.6361 5.58996L5.65796 10.7486L15.6361 15.9102C15.8643 16.028 16.1355 16.0281 16.3637 15.9103L22.527 12.7257Z" fill="#0B1D43"/>
</svg>
