<svg width="96" height="96" viewBox="0 0 96 96" fill="none" xmlns="http://www.w3.org/2000/svg">
<path fill-rule="evenodd" clip-rule="evenodd" d="M12.854 72.0892H83.1459V23.912H87.9999V76.0055H12.854V72.0892Z" fill="#333333"/>
<path d="M27.0287 19.9957H8V72.0892H27.0287V19.9957Z" stroke="#333333" stroke-miterlimit="10"/>
<path d="M23.0978 49.9586H11.9309V53.8494H23.0978V49.9586Z" stroke="#333333" stroke-miterlimit="10"/>
<path d="M17.5144 38.24C20.598 38.24 23.0978 35.7402 23.0978 32.6565C23.0978 29.5729 20.598 27.0731 17.5144 27.0731C14.4307 27.0731 11.9309 29.5729 11.9309 32.6565C11.9309 35.7402 14.4307 38.24 17.5144 38.24Z" stroke="#333333" stroke-miterlimit="10"/>
<path d="M83.1465 19.9945H31.053V72.088H83.1465V19.9945Z" stroke="#333333" stroke-miterlimit="10"/>
<path d="M42.4774 56.9615C44.6579 56.9615 46.4256 55.1939 46.4256 53.0134C46.4256 50.8329 44.6579 49.0652 42.4774 49.0652C40.2969 49.0652 38.5293 50.8329 38.5293 53.0134C38.5293 55.1939 40.2969 56.9615 42.4774 56.9615Z" stroke="#333333" stroke-miterlimit="10"/>
<path d="M78.8591 46.041H52.5991V67.0815H78.8591V46.041Z" stroke="#333333" stroke-miterlimit="10"/>
<path d="M55.2981 63.4567H76.1038" stroke="#333333" stroke-miterlimit="10"/>
<path d="M70.7754 61.2969H74.0497" stroke="#333333" stroke-miterlimit="10"/>
<path d="M64.9187 61.2969H66.5408" stroke="#333333" stroke-miterlimit="10"/>
<path d="M57.5981 61.2969H60.8717" stroke="#333333" stroke-miterlimit="10"/>
<path d="M61.8453 49.0652H55.2981V51.9043H61.8453V49.0652Z" fill="#333333"/>
<path d="M49.615 46.041H35.3396V67.0815H49.615V46.041Z" stroke="#333333" stroke-miterlimit="10"/>
<path d="M40.2791 63.4567H44.6771" stroke="#333333" stroke-miterlimit="10"/>
<path d="M38.5293 60.6401H46.4256" stroke="#333333" stroke-miterlimit="10"/>
<path d="M55.2981 59.1372H76.1038" stroke="#333333" stroke-miterlimit="10"/>
<path d="M70.7754 56.962H74.0497" stroke="#333333" stroke-miterlimit="10"/>
<path d="M64.9187 56.962H66.5408" stroke="#333333" stroke-miterlimit="10"/>
<path d="M57.5981 56.962H60.8717" stroke="#333333" stroke-miterlimit="10"/>
<path d="M55.2981 54.8167H76.1038" stroke="#333333" stroke-miterlimit="10"/>
<path d="M23.0978 43.5369H11.9309V47.4277H23.0978V43.5369Z" stroke="#333333" stroke-miterlimit="10"/>
<path d="M78.8593 25.1271H35.3396V43.5385H78.8593V25.1271Z" stroke="#333333" stroke-miterlimit="10"/>
<path d="M39.6831 40.3336C40.3204 40.3336 40.837 39.817 40.837 39.1798C40.837 38.5425 40.3204 38.0259 39.6831 38.0259C39.0459 38.0259 38.5293 38.5425 38.5293 39.1798C38.5293 39.817 39.0459 40.3336 39.6831 40.3336Z" fill="#333333"/>
<path d="M55.9461 38.2407C56.5833 38.2407 57.0999 37.7241 57.0999 37.0869C57.0999 36.4496 56.5833 35.933 55.9461 35.933C55.3088 35.933 54.7922 36.4496 54.7922 37.0869C54.7922 37.7241 55.3088 38.2407 55.9461 38.2407Z" fill="#333333"/>
<path d="M74.0506 32.7586C74.6878 32.7586 75.2044 32.242 75.2044 31.6048C75.2044 30.9675 74.6878 30.4509 74.0506 30.4509C73.4133 30.4509 72.8967 30.9675 72.8967 31.6048C72.8967 32.242 73.4133 32.7586 74.0506 32.7586Z" fill="#333333"/>
<path d="M61.845 32.7586C62.4822 32.7586 62.9988 32.242 62.9988 31.6048C62.9988 30.9675 62.4822 30.4509 61.845 30.4509C61.2078 30.4509 60.6912 30.9675 60.6912 31.6048C60.6912 32.242 61.2078 32.7586 61.845 32.7586Z" fill="#333333"/>
<path d="M49.5659 31.6052C50.2032 31.6052 50.7198 31.0886 50.7198 30.4514C50.7198 29.8141 50.2032 29.2975 49.5659 29.2975C48.9287 29.2975 48.4121 29.8141 48.4121 30.4514C48.4121 31.0886 48.9287 31.6052 49.5659 31.6052Z" fill="#333333"/>
<path d="M39.6829 39.1803L49.566 30.4509L56.0736 36.9585L61.845 31.6048H74.0498" stroke="#333333" stroke-miterlimit="10"/>
</svg>
