<svg width="32" height="32" viewBox="0 0 32 32" fill="none" xmlns="http://www.w3.org/2000/svg">
<path fill-rule="evenodd" clip-rule="evenodd" d="M15.9999 3.99994C14.1359 3.99994 12.6249 5.51098 12.6249 7.37494C12.6249 8.62081 13.2999 9.70901 14.3043 10.2937C13.4884 10.5864 12.7527 11.0888 12.1779 11.7637C11.9094 12.079 11.9473 12.5524 12.2626 12.8209C12.578 13.0895 13.0513 13.0516 13.3199 12.7363C13.9885 11.9512 14.9678 11.499 15.9989 11.499C17.0301 11.499 18.0093 11.9512 18.6779 12.7363C18.9465 13.0516 19.4199 13.0895 19.7352 12.8209C20.0506 12.5524 20.0885 12.079 19.8199 11.7637C19.2454 11.0892 18.5102 10.5869 17.6948 10.2941C18.6995 9.70954 19.3749 8.62111 19.3749 7.37494C19.3749 5.51098 17.8638 3.99994 15.9999 3.99994ZM14.1249 7.37494C14.1249 6.33941 14.9643 5.49994 15.9999 5.49994C17.0354 5.49994 17.8749 6.33941 17.8749 7.37494C17.8749 8.41047 17.0354 9.24994 15.9999 9.24994C14.9643 9.24994 14.1249 8.41047 14.1249 7.37494ZM5.12488 21.6249C5.12488 19.761 6.63592 18.2499 8.49988 18.2499C10.3638 18.2499 11.8749 19.761 11.8749 21.6249C11.8749 22.8719 11.1987 23.9609 10.1929 24.5452C11.3409 24.9585 12.3188 25.7854 12.9117 26.897C13.1066 27.2625 12.9683 27.7168 12.6028 27.9117C12.2374 28.1066 11.7831 27.9684 11.5881 27.6029C10.9799 26.4624 9.7925 25.7499 8.4999 25.7499C7.20731 25.7499 6.01995 26.4624 5.41167 27.6029C5.21674 27.9684 4.76245 28.1066 4.39696 27.9117C4.03148 27.7168 3.89322 27.2625 4.08814 26.897C4.68098 25.7854 5.65886 24.9585 6.80684 24.5452C5.8011 23.9609 5.12488 22.8719 5.12488 21.6249ZM8.49988 19.7499C7.46434 19.7499 6.62488 20.5894 6.62488 21.6249C6.62488 22.6605 7.46434 23.4999 8.49988 23.4999C9.53541 23.4999 10.3749 22.6605 10.3749 21.6249C10.3749 20.5894 9.53541 19.7499 8.49988 19.7499ZM23.4999 18.2499C21.6359 18.2499 20.1249 19.761 20.1249 21.6249C20.1249 22.8719 20.8011 23.9609 21.8068 24.5452C20.6589 24.9585 19.681 25.7854 19.0881 26.897C18.8932 27.2625 19.0315 27.7168 19.397 27.9117C19.7624 28.1066 20.2167 27.9684 20.4117 27.6029C21.0199 26.4624 22.2073 25.7499 23.4999 25.7499C24.7925 25.7499 25.9799 26.4624 26.5881 27.6029C26.7831 27.9684 27.2374 28.1066 27.6028 27.9117C27.9683 27.7168 28.1066 27.2625 27.9117 26.897C27.3188 25.7854 26.3409 24.9585 25.1929 24.5452C26.1987 23.9609 26.8749 22.8719 26.8749 21.6249C26.8749 19.761 25.3638 18.2499 23.4999 18.2499ZM21.6249 21.6249C21.6249 20.5894 22.4643 19.7499 23.4999 19.7499C24.5354 19.7499 25.3749 20.5894 25.3749 21.6249C25.3749 22.6605 24.5354 23.4999 23.4999 23.4999C22.4643 23.4999 21.6249 22.6605 21.6249 21.6249ZM19.2663 24.388C19.6524 24.2381 19.8439 23.8036 19.694 23.4174C19.5441 23.0313 19.1096 22.8398 18.7234 22.9897C16.9858 23.6643 15.0597 23.6701 13.318 23.0061C12.931 22.8585 12.4976 23.0526 12.3501 23.4397C12.2025 23.8267 12.3966 24.2601 12.7837 24.4077C14.8724 25.204 17.1824 25.197 19.2663 24.388ZM10.8963 9.48725C11.1794 9.78958 11.1639 10.2642 10.8616 10.5473C9.19369 12.1094 8.32464 14.4086 8.53372 16.6812C8.57167 17.0937 8.26806 17.4588 7.85559 17.4968C7.44312 17.5347 7.07798 17.2311 7.04003 16.8187C6.78871 14.0869 7.82904 11.3324 9.83619 9.45254C10.1385 9.16939 10.6131 9.18493 10.8963 9.48725ZM22.1625 9.45246C21.8601 9.16935 21.3855 9.18497 21.1024 9.48734C20.8193 9.78971 20.8349 10.2643 21.1373 10.5474C22.8085 12.1121 23.6671 14.4041 23.4648 16.6837C23.4282 17.0963 23.733 17.4604 24.1456 17.497C24.5582 17.5336 24.9224 17.2288 24.959 16.8162C25.2013 14.085 24.1761 11.3377 22.1625 9.45246Z" fill="#0B1D43"/>
</svg>
