<svg width="32" height="32" viewBox="0 0 32 32" fill="none" xmlns="http://www.w3.org/2000/svg">
<path fill-rule="evenodd" clip-rule="evenodd" d="M10.2401 4C9.04714 4 8.08008 4.96706 8.08008 6.16V8.43231C8.08008 11.9907 10.4268 15.001 13.6571 16C10.4268 16.999 8.08008 20.0093 8.08008 23.5677V25.84C8.08008 26.7519 8.64514 27.5318 9.44422 27.8487L9.45932 27.8546C9.70147 27.9485 9.96476 28 10.2401 28H21.76C22.953 28 23.92 27.0329 23.92 25.84V23.5677C23.92 20.0093 21.5733 16.999 18.343 16C21.5733 15.001 23.92 11.9907 23.92 8.43231V6.16C23.92 4.96706 22.953 4 21.76 4H10.2401ZM19.229 24.2901C19.9616 24.9087 20.6108 25.6983 21.1337 26.56H10.8664C11.3892 25.6983 12.0384 24.9087 12.771 24.2901C13.761 23.4542 14.8657 22.96 16 22.96C17.1343 22.96 18.239 23.4542 19.229 24.2901ZM20.158 23.1898C21.0723 23.9618 21.8554 24.9382 22.4659 25.9829C22.4752 25.9367 22.48 25.8889 22.48 25.84V23.5677C22.48 19.9889 19.5789 17.0877 16.0001 17.0877C12.4213 17.0877 9.52007 19.9889 9.52007 23.5677V25.84C9.52007 25.8889 9.52495 25.9366 9.53423 25.9828C10.1446 24.9381 10.9278 23.9618 11.8421 23.1898C13.0118 22.2022 14.4338 21.52 16 21.52C17.5662 21.52 18.9882 22.2022 20.158 23.1898ZM9.52007 6.16C9.52007 5.76235 9.84243 5.44 10.2401 5.44H21.76C22.1577 5.44 22.48 5.76235 22.48 6.16V8.43231C22.48 9.42243 22.258 10.3607 21.8609 11.2H10.1392C9.74214 10.3607 9.52007 9.42243 9.52007 8.43231V6.16ZM11.0718 12.64H20.9283C19.7398 14.0307 17.9729 14.9123 16.0001 14.9123C14.0273 14.9123 12.2604 14.0307 11.0718 12.64Z" fill="#0B1D43"/>
</svg>
