<svg width="97" height="96" viewBox="0 0 97 96" fill="none" xmlns="http://www.w3.org/2000/svg">
<path d="M72.3744 80.7199L65.1152 73.4608L61.0824 77.4937L68.3415 84.7528L72.3744 80.7199Z" fill="#333333"/>
<path d="M59.3604 78.9978L52.1013 71.7386L48.0685 75.7715L55.3276 83.0306L59.3604 78.9978Z" fill="#333333"/>
<path d="M60.974 77.3848L53.7148 70.1257L52.9083 70.9322L60.1674 78.1914L60.974 77.3848Z" fill="#333333"/>
<path d="M83.5577 54.8011L76.2986 47.5419L48.0687 75.7719L55.3278 83.031L83.5577 54.8011Z" stroke="#333333" stroke-miterlimit="10"/>
<path d="M73.9874 79.107L66.7283 71.8478L65.9217 72.6544L73.1808 79.9135L73.9874 79.107Z" fill="#333333"/>
<path d="M84.3641 68.5124L77.105 61.2533L60.9736 77.3847L68.2327 84.6438L84.3641 68.5124Z" stroke="#333333" stroke-miterlimit="10"/>
<path d="M24.6783 44.3156L17.4192 37.0565L13.3863 41.0894L20.6455 48.3485L24.6783 44.3156Z" fill="#333333"/>
<path d="M26.2911 42.7027L19.032 35.4436L18.2254 36.2502L25.4845 43.5093L26.2911 42.7027Z" fill="#333333"/>
<path d="M48.8748 20.1189L41.6157 12.8598L13.3858 41.0897L20.6449 48.3488L48.8748 20.1189Z" stroke="#333333" stroke-miterlimit="10"/>
<path d="M60.9739 62.867L33.5505 35.4436L31.1308 37.8633L58.5542 65.2867L60.9739 62.867Z" fill="#333333"/>
<path d="M65.8132 58.0269L38.3899 30.6036L31.1308 37.8627L58.5541 65.2861L65.8132 58.0269Z" stroke="#333333" stroke-miterlimit="10"/>
<path d="M23.1739 31.5189L15.9148 24.2598L11.8819 28.2926L19.1411 35.5517L23.1739 31.5189Z" fill="#333333"/>
<path d="M24.7867 29.9059L17.5276 22.6468L16.721 23.4534L23.9801 30.7125L24.7867 29.9059Z" fill="#333333"/>
<path d="M35.1637 19.3125L27.9045 12.0534L11.7732 28.1848L19.0323 35.4439L35.1637 19.3125Z" stroke="#333333" stroke-miterlimit="10"/>
</svg>
