<svg width="97" height="96" viewBox="0 0 97 96" fill="none" xmlns="http://www.w3.org/2000/svg">
<path d="M75.6316 34.4316H67.8V35.4105H75.6316V34.4316Z" fill="#333333"/>
<path d="M37.1877 26.6946V33.5801C37.1877 47.4912 29.7343 58.7679 12 58.7679" stroke="#333333" stroke-miterlimit="10"/>
<path d="M32.5579 34.4316H24.7263V35.4105H32.5579V34.4316Z" fill="#333333"/>
<path d="M24.7263 30.5158H15.9158V35.4105H24.7263V30.5158Z" fill="#333333"/>
<path d="M37.4526 26.6H32.5579V29.5369H37.4526V26.6Z" fill="#333333"/>
<path d="M50.2255 22.5918V33.4229C50.2255 35.2231 48.7664 36.6803 46.9661 36.6803C45.1679 36.6803 43.7087 35.2231 43.7087 33.4229V22.5918C43.7087 20.7916 45.1679 19.3344 46.9661 19.3344C47.8673 19.3344 48.6816 19.6992 49.2712 20.2888C49.8607 20.8764 50.2255 21.6927 50.2255 22.5918Z" fill="#333333" stroke="#333333" stroke-miterlimit="10"/>
<path d="M56.7401 22.5918V33.4229C56.7401 35.2231 55.283 36.6803 53.4827 36.6803C51.6845 36.6803 50.2253 35.2231 50.2253 33.4229V22.5918C50.2253 20.7916 51.6845 19.3344 53.4827 19.3344C54.3819 19.3344 55.1982 19.6992 55.7858 20.2888C56.3754 20.8764 56.7401 21.6927 56.7401 22.5918Z" fill="#333333" stroke="#333333" stroke-miterlimit="10"/>
<path d="M63.2568 22.5918V33.4229C63.2568 35.2231 61.7976 36.6803 59.9994 36.6803C58.1991 36.6803 56.74 35.2231 56.74 33.4229V22.5918C56.74 20.7916 58.1991 19.3344 59.9994 19.3344C60.8985 19.3344 61.7129 19.6992 62.3024 20.2888C62.892 20.8764 63.2568 21.6927 63.2568 22.5918Z" fill="#333333" stroke="#333333" stroke-miterlimit="10"/>
<path d="M43.7084 22.5918V33.4229C43.7084 35.2231 42.2493 36.6803 40.451 36.6803C38.6508 36.6803 37.1917 35.2231 37.1917 33.4229V22.5918C37.1917 20.7916 38.6508 19.3344 40.451 19.3344C41.3502 19.3344 42.1645 19.6992 42.7541 20.2888C43.3437 20.8764 43.7084 21.6927 43.7084 22.5918Z" fill="#333333" stroke="#333333" stroke-miterlimit="10"/>
<path d="M50.2255 19.6549V30.486C50.2255 32.2862 48.7664 33.7434 46.9661 33.7434C45.1679 33.7434 43.7087 32.2862 43.7087 30.486V19.6549C43.7087 17.8547 45.1679 16.3975 46.9661 16.3975C47.8673 16.3975 48.6816 16.7623 49.2712 17.3519C49.8607 17.9395 50.2255 18.7558 50.2255 19.6549Z" fill="white" stroke="#333333" stroke-miterlimit="10"/>
<path d="M75.6316 37.3685H67.8V42.2632H75.6316V37.3685Z" fill="#333333"/>
<path d="M32.5579 37.3685H24.7263V42.2632H32.5579V37.3685Z" fill="#333333"/>
<path d="M75.9629 8H67.3994V42.3171H75.9629V8Z" stroke="#333333" stroke-miterlimit="10"/>
<path d="M84.4421 30.5158H75.6316V35.4105H84.4421V30.5158Z" fill="#333333"/>
<path d="M84.4421 28.5579H75.6316V29.5369H84.4421V28.5579Z" fill="#333333"/>
<path d="M67.8 26.6H62.9053V29.5369H67.8V26.6Z" fill="#333333"/>
<path d="M67.3998 21.1517H63.2571V29.1651H67.3998V21.1517Z" stroke="#333333" stroke-miterlimit="10"/>
<path d="M32.9107 8H24.3472V42.3171H32.9107V8Z" stroke="#333333" stroke-miterlimit="10"/>
<path d="M24.7263 28.5579H15.9158V29.5369H24.7263V28.5579Z" fill="#333333"/>
<path d="M37.1914 21.1517H32.9106V29.1651H37.1914V21.1517Z" stroke="#333333" stroke-miterlimit="10"/>
<path d="M84.5264 15.0161H75.9629V35.3019H84.5264V15.0161Z" stroke="#333333" stroke-miterlimit="10"/>
<path d="M24.3474 15.0161H15.7839V35.3019H24.3474V15.0161Z" stroke="#333333" stroke-miterlimit="10"/>
<path d="M56.7401 19.6549V30.486C56.7401 32.2862 55.283 33.7434 53.4827 33.7434C51.6845 33.7434 50.2253 32.2862 50.2253 30.486V19.6549C50.2253 17.8547 51.6845 16.3975 53.4827 16.3975C54.3819 16.3975 55.1982 16.7623 55.7858 17.3519C56.3754 17.9395 56.7401 18.7558 56.7401 19.6549Z" fill="white" stroke="#333333" stroke-miterlimit="10"/>
<path d="M63.2568 19.6549V30.486C63.2568 32.2862 61.7976 33.7434 59.9994 33.7434C58.1991 33.7434 56.74 32.2862 56.74 30.486V19.6549C56.74 17.8547 58.1991 16.3975 59.9994 16.3975C60.8985 16.3975 61.7129 16.7623 62.3024 17.3519C62.892 17.9395 63.2568 18.7558 63.2568 19.6549Z" fill="white" stroke="#333333" stroke-miterlimit="10"/>
<path d="M43.7084 19.6549V30.486C43.7084 32.2862 42.2493 33.7434 40.451 33.7434C38.6508 33.7434 37.1917 32.2862 37.1917 30.486V19.6549C37.1917 17.8547 38.6508 16.3975 40.451 16.3975C41.3502 16.3975 42.1645 16.7623 42.7541 17.3519C43.3437 17.9395 43.7084 18.7558 43.7084 19.6549Z" fill="white" stroke="#333333" stroke-miterlimit="10"/>
<path d="M63.316 30.8791V40.9274C63.316 67.3376 49.614 88 12 88" stroke="#333333" stroke-miterlimit="10"/>
<path d="M50.179 39.3685C50.179 42.5476 53.5151 44.2632 56.0526 44.2632" stroke="#333333" stroke-miterlimit="10"/>
<path d="M50.1789 39.3685C50.1789 42.5476 46.8427 44.2632 44.3052 44.2632" stroke="#333333" stroke-miterlimit="10"/>
</svg>
