<svg width="96" height="96" viewBox="0 0 96 96" fill="none" xmlns="http://www.w3.org/2000/svg">
<path d="M54.0001 66.0109C54.33 66.0109 54.5974 65.7435 54.5974 65.4136C54.5974 65.0837 54.33 64.8163 54.0001 64.8163C53.6703 64.8163 53.4028 65.0837 53.4028 65.4136C53.4028 65.7435 53.6703 66.0109 54.0001 66.0109Z" fill="#333333"/>
<path d="M41.3068 65.9728C41.6366 65.9728 41.9041 65.7054 41.9041 65.3755C41.9041 65.0456 41.6366 64.7782 41.3068 64.7782C40.9769 64.7782 40.7095 65.0456 40.7095 65.3755C40.7095 65.7054 40.9769 65.9728 41.3068 65.9728Z" fill="#333333"/>
<path fill-rule="evenodd" clip-rule="evenodd" d="M56.1052 54.2021V49.463C56.1052 47.7724 54.7349 46.4027 53.0449 46.4027H42.9546C41.2645 46.4027 39.8943 47.773 39.8943 49.463V54.2021C39.8943 54.9054 40.2659 55.5604 40.8763 55.91C42.9754 57.1111 45.4075 57.7978 47.9998 57.7978C50.592 57.7978 53.0241 57.1111 55.1232 55.91C55.7342 55.5604 56.1052 54.9054 56.1052 54.2021ZM51.4847 50.2428C51.6002 49.7908 51.2596 49.3508 50.7927 49.3508H45.2068C44.7405 49.3508 44.3993 49.7908 44.5148 50.2428C44.9114 51.7977 46.321 52.947 47.9997 52.947C49.6779 52.947 51.088 51.7977 51.4847 50.2428Z" fill="#333333"/>
<path d="M62.3677 44.0774V43.4301" stroke="#333333" stroke-miterlimit="10"/>
<path d="M62.3675 31.8546H33.6318V37.35H62.3675V31.8546Z" stroke="#333333" stroke-miterlimit="10"/>
<path d="M33.6318 43.43V37.3499H37.5009L33.7176 45.0069" fill="#333333"/>
<path d="M33.6318 43.43V37.3499H37.5009L33.7176 45.0069" stroke="#333333" stroke-miterlimit="10"/>
<path d="M33.7177 45.0068L33.657 45.13" stroke="#333333" stroke-miterlimit="10"/>
<path d="M41.324 43.5245C41.7045 43.5245 42.013 43.216 42.013 42.8355C42.013 42.455 41.7045 42.1465 41.324 42.1465C40.9435 42.1465 40.635 42.455 40.635 42.8355C40.635 43.216 40.9435 43.5245 41.324 43.5245Z" fill="#333333"/>
<path d="M53.9998 43.4644C54.3803 43.4644 54.6888 43.156 54.6888 42.7754C54.6888 42.3949 54.3803 42.0864 53.9998 42.0864C53.6193 42.0864 53.3108 42.3949 53.3108 42.7754C53.3108 43.156 53.6193 43.4644 53.9998 43.4644Z" fill="#333333"/>
<path d="M51.8872 41.3136H56.1123" stroke="#333333" stroke-miterlimit="10"/>
<path d="M39.2112 41.3136H43.4363" stroke="#333333" stroke-miterlimit="10"/>
<path d="M62.3676 37.3499V43.43C62.3676 43.9421 62.3456 44.468 62.3456 44.9462L58.5349 37.3499H62.3676Z" fill="#333333" stroke="#333333" stroke-miterlimit="10"/>
<path d="M62.3675 43.4081L62.3139 46.8037C62.2538 50.6018 59.9837 54.1094 56.3147 55.9388C56.2457 55.9733 56.1754 56.0073 56.1051 56.0412C53.7981 57.1494 51.007 57.7979 47.9997 57.7979C44.9923 57.7979 42.2012 57.1494 39.8942 56.0412C39.8239 56.0073 39.7543 55.9733 39.6846 55.9388C36.0157 54.1094 33.7456 50.6018 33.6854 46.8037L33.6318 43.4081" stroke="#333333" stroke-miterlimit="10"/>
<path d="M33.6318 42.1472C32.0091 42.1769 30.7031 43.5007 30.7031 45.1301C30.7031 46.7784 32.0389 48.1141 33.6872 48.1141C33.7039 48.1141 33.7206 48.1141 33.7372 48.1136" stroke="#333333" stroke-miterlimit="10"/>
<path d="M22.2961 45.6653V47.7449C22.2961 51.9462 24.5472 55.3519 29.9032 55.3519H38.644" stroke="#333333" stroke-miterlimit="10"/>
<path d="M14.4232 43.9918H13.1726V46.4119H14.4232V43.9918Z" stroke="#333333" stroke-miterlimit="10"/>
<path d="M62.3674 42.1465C64.0151 42.1465 65.3515 43.4822 65.3515 45.13C65.3515 46.7783 64.0151 48.1141 62.3674 48.1141C62.3322 48.1141 62.2971 48.1135 62.262 48.1117" stroke="#333333" stroke-miterlimit="10"/>
<path d="M73.7035 45.6653V47.7449C73.7035 51.9462 71.4525 55.3519 66.0964 55.3519H57.355" stroke="#333333" stroke-miterlimit="10"/>
<path d="M73.7042 43.9918H72.4114V46.4119H73.7042V43.9918Z" stroke="#333333" stroke-miterlimit="10"/>
<path d="M26.1749 40.019H23.5886V50.3833H26.1749V40.019Z" stroke="#333333" stroke-miterlimit="10"/>
<path d="M23.5886 43.9918H22.2952V46.4119H23.5886V43.9918Z" stroke="#333333" stroke-miterlimit="10"/>
<path d="M77.6405 43.5396V46.8108C77.6405 47.3545 77.1998 47.7945 76.6561 47.7945C76.113 47.7945 75.6724 47.3545 75.6724 46.8108V43.5396C75.6724 42.9959 76.113 42.5558 76.6561 42.5558C76.9283 42.5558 77.1742 42.666 77.3523 42.8441C77.5303 43.0215 77.6405 43.2681 77.6405 43.5396Z" stroke="#333333" stroke-miterlimit="10"/>
<path d="M22.2952 43.5396V46.8108C22.2952 47.3545 21.8545 47.7945 21.3114 47.7945C20.7677 47.7945 20.3276 47.3545 20.3276 46.8108V43.5396C20.3276 43.2681 20.4378 43.0215 20.6159 42.8441C20.7933 42.666 21.0399 42.5558 21.3114 42.5558C21.8545 42.5558 22.2952 42.9959 22.2952 43.5396Z" stroke="#333333" stroke-miterlimit="10"/>
<path d="M20.3275 43.5396V46.8108C20.3275 47.3545 19.8869 47.7945 19.3432 47.7945C18.8001 47.7945 18.3594 47.3545 18.3594 46.8108V43.5396C18.3594 43.2681 18.4695 43.0215 18.6476 42.8441C18.8257 42.666 19.0716 42.5558 19.3432 42.5558C19.8869 42.5558 20.3275 42.9959 20.3275 43.5396Z" stroke="#333333" stroke-miterlimit="10"/>
<path d="M18.3595 43.5396V46.8108C18.3595 47.3545 17.9188 47.7945 17.3751 47.7945C16.832 47.7945 16.3914 47.3545 16.3914 46.8108V43.5396C16.3914 43.2681 16.5015 43.0215 16.6796 42.8441C16.8576 42.666 17.1036 42.5558 17.3751 42.5558C17.9188 42.5558 18.3595 42.9959 18.3595 43.5396Z" stroke="#333333" stroke-miterlimit="10"/>
<path d="M16.3913 43.5396V46.8108C16.3913 47.3545 15.9506 47.7945 15.4075 47.7945C14.8638 47.7945 14.4231 47.3545 14.4231 46.8108V43.5396C14.4231 43.2681 14.5333 43.0215 14.7113 42.8441C14.8894 42.666 15.1359 42.5558 15.4075 42.5558C15.9506 42.5558 16.3913 42.9959 16.3913 43.5396Z" stroke="#333333" stroke-miterlimit="10"/>
<path d="M28.7613 42.1381H26.175V48.2647H28.7613V42.1381Z" stroke="#333333" stroke-miterlimit="10"/>
<path d="M14.4231 46.9289V49.9636C14.4231 57.9398 19.3432 64.1802 30.7031 64.1802H35.5666V70.5968" stroke="#333333" stroke-miterlimit="10"/>
<path d="M13.1725 40.019H10.5862V50.3833H13.1725V40.019Z" stroke="#333333" stroke-miterlimit="10"/>
<path d="M10.5863 42.1381H8V48.2647H10.5863V42.1381Z" stroke="#333333" stroke-miterlimit="10"/>
<path d="M85.4137 40.019H82.8274V50.3833H85.4137V40.019Z" stroke="#333333" stroke-miterlimit="10"/>
<path d="M82.8276 43.9918H81.5764V46.4119H82.8276V43.9918Z" stroke="#333333" stroke-miterlimit="10"/>
<path d="M81.5761 43.5396V46.8108C81.5761 47.3545 81.1354 47.7945 80.5923 47.7945C80.0486 47.7945 79.6079 47.3545 79.6079 46.8108V43.5396C79.6079 42.9959 80.0486 42.5558 80.5923 42.5558C80.8638 42.5558 81.1098 42.666 81.2878 42.8441C81.4659 43.0215 81.5761 43.2681 81.5761 43.5396Z" stroke="#333333" stroke-miterlimit="10"/>
<path d="M79.6079 43.5396V46.8108C79.6079 47.3545 79.1679 47.7945 78.6242 47.7945C78.0811 47.7945 77.6404 47.3545 77.6404 46.8108V43.5396C77.6404 42.9959 78.0811 42.5558 78.6242 42.5558C78.8957 42.5558 79.1423 42.666 79.3197 42.8441C79.4978 43.0215 79.6079 43.2681 79.6079 43.5396Z" stroke="#333333" stroke-miterlimit="10"/>
<path d="M75.6723 43.5396V46.8108C75.6723 47.3545 75.2316 47.7945 74.6885 47.7945C74.1448 47.7945 73.7041 47.3545 73.7041 46.8108V43.5396C73.7041 42.9959 74.1448 42.5558 74.6885 42.5558C74.96 42.5558 75.206 42.666 75.384 42.8441C75.5621 43.0215 75.6723 43.2681 75.6723 43.5396Z" stroke="#333333" stroke-miterlimit="10"/>
<path d="M88.0001 42.1381H85.4138V48.2647H88.0001V42.1381Z" stroke="#333333" stroke-miterlimit="10"/>
<path d="M72.4112 40.019H69.825V50.3833H72.4112V40.019Z" stroke="#333333" stroke-miterlimit="10"/>
<path d="M69.8251 42.1381H67.2388V48.2647H69.8251V42.1381Z" stroke="#333333" stroke-miterlimit="10"/>
<path d="M81.5947 46.9289V49.9636C81.5947 57.9398 76.6746 64.1802 65.3147 64.1802H60.4512V70.5968" stroke="#333333" stroke-miterlimit="10"/>
<path d="M62.3675 25.4032V31.8543H33.6318V25.4032L36.5052 28.738L39.3791 25.4032L42.2524 28.738L45.1257 25.4032L47.9991 28.738L50.873 25.4032L53.7463 28.738L56.6196 25.4032L59.4936 28.738L62.3675 25.4032Z" fill="#333333" stroke="#333333" stroke-miterlimit="10"/>
</svg>
